<svg xmlns="http://www.w3.org/2000/svg" viewBox="0 0 1200 40" width="600" height="20" preserveAspectRatio="none">
  <defs>
    <!-- 发光效果 -->
    <filter id="glow" x="-50%" y="-50%" width="200%" height="200%">
      <feGaussianBlur in="SourceGraphic" stdDeviation="3" result="b"/>
      <feMerge>
        <feMergeNode in="b"/>
        <feMergeNode in="SourceGraphic"/>
      </feMerge>
    </filter>

    <!-- 线条透明度渐变（两端消失/变细） -->
    <linearGradient id="fade" x1="0%" y1="0%" x2="100%" y2="0%">
      <stop offset="0%" stop-color="white" stop-opacity="0"/>
      <stop offset="15%" stop-color="white" stop-opacity="1"/>
      <stop offset="85%" stop-color="white" stop-opacity="1"/>
      <stop offset="100%" stop-color="white" stop-opacity="0"/>
    </linearGradient>

    <!-- 用 mask 让 stroke 两端变细消隐 -->
    <mask id="thinMask">
      <rect x="0" y="0" width="1200" height="40" fill="url(#fade)"/>
    </mask>
  </defs>

  <style>
    :root {
      --bolt: #ffe066;
      --core: #fffefc;
    }

    path { vector-effect: non-scaling-stroke; }

    .bolt {
      fill: none;
      stroke: var(--bolt);
      stroke-width: 3.5;
      stroke-linecap: butt;
      stroke-linejoin: miter;
      filter: url(#glow);
      mask: url(#thinMask);
    }
    .core {
      fill: none;
      stroke: var(--core);
      stroke-width: 1.5;
      stroke-linecap: butt;
      stroke-linejoin: miter;
      opacity: 0.95;
      mask: url(#thinMask);
    }

    .strike { will-change: opacity, transform; transform-origin: 50% 50%; }

    @keyframes flickA {
      0%, 100% { opacity: 0; }
      5%  { opacity: 1; transform: translateY(-0.6px); }
      12% { opacity: 0.8; transform: translateY(0.4px); }
      20% { opacity: 0; }
    }
    @keyframes flickB {
      0%, 100% { opacity: 0; }
      8%  { opacity: 0.95; transform: translateY(0.5px); }
      18% { opacity: 0.6; transform: translateY(-0.3px); }
      28% { opacity: 0; }
    }
    @keyframes flickC {
      0%, 100% { opacity: 0; }
      10% { opacity: 1; transform: translateY(-0.8px); }
      22% { opacity: 0.9; transform: translateY(0.6px); }
      35% { opacity: 0; }
    }

    .strikeA { animation: flickA 1.1s linear infinite; }
    .strikeB { animation: flickB 1.5s linear infinite 0.2s; }
    .strikeC { animation: flickC 2.0s linear infinite 0.35s; }
  </style>

  <!-- 主路径 A -->
  <g class="strike strikeA">
    <path class="bolt" d="M0 20 L60 6 L120 28 L200 10 L280 30 L360 8 L440 26 L520 12 L600 28 L680 9 L760 30 L840 12 L920 28 L1000 10 L1080 26 L1160 14 L1200 20"/>
    <path class="core" d="M0 20 L60 6 L120 28 L200 10 L280 30 L360 8 L440 26 L520 12 L600 28 L680 9 L760 30 L840 12 L920 28 L1000 10 L1080 26 L1160 14 L1200 20"/>
  </g>

  <!-- 主路径 B -->
  <g class="strike strikeB">
    <path class="bolt" d="M0 20 L70 8 L140 26 L220 12 L300 28 L380 10 L460 30 L540 14 L620 26 L700 9 L780 28 L860 13 L940 30 L1020 11 L1100 28 L1180 12 L1200 20"/>
    <path class="core" d="M0 20 L70 8 L140 26 L220 12 L300 28 L380 10 L460 30 L540 14 L620 26 L700 9 L780 28 L860 13 L940 30 L1020 11 L1100 28 L1180 12 L1200 20"/>
  </g>

  <!-- 主路径 C -->
  <g class="strike strikeC">
    <path class="bolt" d="M0 20 L50 10 L110 28 L180 8 L260 30 L340 12 L420 26 L500 9 L580 28 L660 11 L740 30 L820 12 L900 28 L980 10 L1060 26 L1140 12 L1200 20"/>
    <path class="core" d="M0 20 L50 10 L110 28 L180 8 L260 30 L340 12 L420 26 L500 9 L580 28 L660 11 L740 30 L820 12 L900 28 L980 10 L1060 26 L1140 12 L1200 20"/>
  </g>
</svg>
